<?xml version="1.0"?>
<svg xmlns="http://www.w3.org/2000/svg" xmlns:xlink="http://www.w3.org/1999/xlink" xmlns:svgjs="http://svgjs.com/svgjs" version="1.1" width="512" height="512" x="0" y="0" viewBox="0 0 512 512" style="enable-background:new 0 0 512 512" xml:space="preserve" class=""><g><g xmlns="http://www.w3.org/2000/svg" id="BULINE"><circle cx="256" cy="256" fill="#07323e" r="256" data-original="#7dd2ea" style="" class=""/></g><g xmlns="http://www.w3.org/2000/svg" id="Icons"><path d="m449.19 138a8.87 8.87 0 0 0 -2.49.36 13.75 13.75 0 0 0 -13.7-13.17c-.48 0-1 0-1.42.07a18.3 18.3 0 0 0 -36.27 2.4 10.53 10.53 0 0 0 -3.9-.74 10.67 10.67 0 0 0 -10.67 10.66v.67a8.86 8.86 0 1 0 -2.26 17.42h70.72a8.86 8.86 0 0 0 0-17.72z" fill="#ffffff" data-original="#ffffff" style="" class=""/><path d="m121.35 123.28a8.92 8.92 0 0 0 -2.49.36 13.73 13.73 0 0 0 -13.72-13.12 13.55 13.55 0 0 0 -1.43.08 18.3 18.3 0 0 0 -36.26 2.4 10.79 10.79 0 0 0 -3.91-.74 10.67 10.67 0 0 0 -10.66 10.67v.67a8.46 8.46 0 0 0 -2.27-.31 8.86 8.86 0 0 0 0 17.72h70.72a8.86 8.86 0 1 0 0-17.72z" fill="#ffffff" data-original="#ffffff" style="" class=""/><path d="m469.91 234v162.69q-3.42 5.19-7.08 10.19l-1.8 2.44a257 257 0 0 1 -92.51 76.68h-21.78v-252z" fill="#a65c3b" data-original="#a65c3b" style="" class=""/><path d="m469.92 234v19.84h-92.92a11.25 11.25 0 0 0 -11.25 11.25v220.91h-19v-252z" fill="#9e4830" data-original="#9e4830" style="" class=""/><path d="m164.11 149.84v336.16h-20.63a256.72 256.72 0 0 1 -80.57-61.92v-214.86a13.11 13.11 0 0 1 7.18-11.69l74.82-37.95z" fill="#3586cb" data-original="#3586cb" style="" class=""/><path d="m164.12 149.84v336.16h-19.21v-326.42z" fill="#366fca" data-original="#366fca" style="" class=""/><path d="m190.93 75.17h129a4.76 4.76 0 0 1 4.76 4.76v9.49a0 0 0 0 1 0 0h-138.53a0 0 0 0 1 0 0v-9.49a4.76 4.76 0 0 1 4.77-4.76z" fill="#a65c3b" data-original="#a65c3b" style="" class=""/><path d="m196.67 60.17h117.52a5.33 5.33 0 0 1 5.33 5.33v9.67a0 0 0 0 1 0 0h-128.19a0 0 0 0 1 0 0v-9.67a5.33 5.33 0 0 1 5.34-5.33z" fill="#f6c752" data-original="#f6c752" style="" class=""/><path d="m221.92 75.17a4.76 4.76 0 0 0 -4.76 4.76v9.49h-31v-9.49a4.76 4.76 0 0 1 4.76-4.76z" fill="#9e4830" data-original="#9e4830" style="" class=""/><path d="m227.66 60.17a5.33 5.33 0 0 0 -5.33 5.33v9.67h-31v-9.67a5.33 5.33 0 0 1 5.33-5.33z" fill="#f7bb38" data-original="#f7bb38" style="" class=""/><path d="m168.54 88.67h173.78a4.42 4.42 0 0 1 4.42 4.42v392.91a0 0 0 0 1 0 0h-182.63a0 0 0 0 1 0 0v-392.91a4.42 4.42 0 0 1 4.43-4.42z" fill="#f6c752" data-original="#f6c752" style="" class=""/><g fill="#f7f4ed"><rect height="42.67" rx="1.5" width="30" x="173.93" y="107.17" fill="#f7f4ed" data-original="#f7f4ed" style="" class=""/><rect height="42.67" rx="1.5" width="30" x="218.26" y="107.17" fill="#f7f4ed" data-original="#f7f4ed" style="" class=""/><rect height="42.67" rx="1.5" width="30" x="262.59" y="107.17" fill="#f7f4ed" data-original="#f7f4ed" style="" class=""/><rect height="42.67" rx="1.5" width="30" x="306.93" y="107.17" fill="#f7f4ed" data-original="#f7f4ed" style="" class=""/><rect height="42.67" rx="1.5" width="30" x="173.93" y="164.67" fill="#f7f4ed" data-original="#f7f4ed" style="" class=""/><rect height="42.67" rx="1.5" width="30" x="218.26" y="164.67" fill="#f7f4ed" data-original="#f7f4ed" style="" class=""/><rect height="42.67" rx="1.5" width="30" x="262.59" y="164.67" fill="#f7f4ed" data-original="#f7f4ed" style="" class=""/><rect height="42.67" rx="1.5" width="30" x="306.93" y="164.67" fill="#f7f4ed" data-original="#f7f4ed" style="" class=""/><rect height="42.67" rx="1.5" width="30" x="173.93" y="222.17" fill="#f7f4ed" data-original="#f7f4ed" style="" class=""/><rect height="42.67" rx="1.5" width="30" x="218.26" y="222.17" fill="#f7f4ed" data-original="#f7f4ed" style="" class=""/><rect height="42.67" rx="1.5" width="30" x="262.59" y="222.17" fill="#f7f4ed" data-original="#f7f4ed" style="" class=""/><rect height="42.67" rx="1.5" width="30" x="306.93" y="222.17" fill="#f7f4ed" data-original="#f7f4ed" style="" class=""/><rect height="42.67" rx="1.5" width="30" x="173.93" y="279.67" fill="#f7f4ed" data-original="#f7f4ed" style="" class=""/><rect height="42.67" rx="1.5" width="30" x="218.26" y="279.67" fill="#f7f4ed" data-original="#f7f4ed" style="" class=""/><rect height="42.67" rx="1.5" width="30" x="262.59" y="279.67" fill="#f7f4ed" data-original="#f7f4ed" style="" class=""/><rect height="42.67" rx="1.5" width="30" x="306.93" y="279.67" fill="#f7f4ed" data-original="#f7f4ed" style="" class=""/><rect height="42.67" rx="1.5" width="30" x="173.93" y="337.17" fill="#f7f4ed" data-original="#f7f4ed" style="" class=""/><rect height="42.67" rx="1.5" width="30" x="218.26" y="337.17" fill="#f7f4ed" data-original="#f7f4ed" style="" class=""/><rect height="42.67" rx="1.5" width="30" x="262.59" y="337.17" fill="#f7f4ed" data-original="#f7f4ed" style="" class=""/><rect height="42.67" rx="1.5" width="30" x="306.93" y="337.17" fill="#f7f4ed" data-original="#f7f4ed" style="" class=""/><rect height="42.67" rx="1.5" width="30" x="173.93" y="394.67" fill="#f7f4ed" data-original="#f7f4ed" style="" class=""/><rect height="42.67" rx="1.5" width="30" x="218.26" y="394.67" fill="#f7f4ed" data-original="#f7f4ed" style="" class=""/><rect height="42.67" rx="1.5" width="30" x="262.59" y="394.67" fill="#f7f4ed" data-original="#f7f4ed" style="" class=""/><rect height="42.67" rx="1.5" width="30" x="306.93" y="394.67" fill="#f7f4ed" data-original="#f7f4ed" style="" class=""/></g><path d="m215.61 88.67v397.33h-51.5v-392.91a4.42 4.42 0 0 1 4.43-4.42z" fill="#f7bb38" data-original="#f7bb38" style="" class=""/><rect fill="#dbd9d5" height="42.67" rx="1.5" width="30" x="173.92" y="107.17" data-original="#dbd9d5" style="" class=""/><rect fill="#dbd9d5" height="42.67" rx="1.5" width="30" x="173.92" y="164.67" data-original="#dbd9d5" style="" class=""/><rect fill="#dbd9d5" height="42.67" rx="1.5" width="30" x="173.92" y="222.17" data-original="#dbd9d5" style="" class=""/><rect fill="#dbd9d5" height="42.67" rx="1.5" width="30" x="173.92" y="279.67" data-original="#dbd9d5" style="" class=""/><rect fill="#dbd9d5" height="42.67" rx="1.5" width="30" x="173.92" y="337.17" data-original="#dbd9d5" style="" class=""/><rect fill="#dbd9d5" height="42.67" rx="1.5" width="30" x="173.92" y="394.67" data-original="#dbd9d5" style="" class=""/><path d="m235.86 444.5h39.14a2.6 2.6 0 0 1 2.6 2.6v38.9a0 0 0 0 1 0 0h-44.34a0 0 0 0 1 0 0v-38.9a2.6 2.6 0 0 1 2.6-2.6z" fill="#f7f4ed" data-original="#f7f4ed" style="" class=""/><ellipse cx="284.42" cy="67.5" fill="#f7d384" rx="10" ry="4" data-original="#f7d384" style="" class=""/><ellipse cx="303.6" cy="67.5" fill="#f7d384" rx="7.17" ry="2.87" data-original="#f7d384" style="" class=""/><path d="m254.91 6a3.58 3.58 0 0 1 3.58 3.58v50.59a0 0 0 0 1 0 0h-7.17a0 0 0 0 1 0 0v-50.59a3.58 3.58 0 0 1 3.59-3.58z" fill="#a65c3b" data-original="#a65c3b" style="" class=""/><path d="m368.52 486a256.48 256.48 0 0 1 -225 0z" fill="#32314b" data-original="#32314b" style=""/><rect fill="#4f4f74" height="24.33" rx="12.17" width="73" x="77.01" y="217.67" data-original="#4f4f74" style="" class=""/><rect fill="#4f4f74" height="24.33" rx="12.17" width="73" x="77.01" y="267.5" data-original="#4f4f74" style="" class=""/><rect fill="#4f4f74" height="24.33" rx="12.17" width="73" x="77.01" y="317.33" data-original="#4f4f74" style="" class=""/><rect fill="#4f4f74" height="24.33" rx="12.17" width="73" x="77.01" y="367.17" data-original="#4f4f74" style="" class=""/><rect fill="#4f4f74" height="24.33" rx="12.17" width="73" x="77.01" y="417" data-original="#4f4f74" style="" class=""/><path d="m361.33 262.83h35.67a1.83 1.83 0 0 1 1.83 1.83v53.17a0 0 0 0 1 0 0h-39.33a0 0 0 0 1 0 0v-53.16a1.83 1.83 0 0 1 1.83-1.84z" fill="#41c0e3" data-original="#41c0e3" style="" class=""/><path d="m398.83 311.29v6.71h-39.33v-53.21a1.83 1.83 0 0 1 1.83-1.83h5.84v42.9a5.43 5.43 0 0 0 5.43 5.43z" fill="#37aac4" data-original="#37aac4" style="" class=""/><rect fill="#ffffff" height="10" rx="2.04" width="51" x="353.66" y="317.83" data-original="#ffffff" style="" class=""/><path d="m419.49 262.83h35.67a1.83 1.83 0 0 1 1.83 1.83v53.17a0 0 0 0 1 0 0h-39.33a0 0 0 0 1 0 0v-53.16a1.83 1.83 0 0 1 1.83-1.84z" fill="#41c0e3" data-original="#41c0e3" style="" class=""/><path d="m457 311.29v6.71h-39.34v-53.21a1.83 1.83 0 0 1 1.83-1.83h5.84v42.9a5.44 5.44 0 0 0 5.44 5.43z" fill="#37aac4" data-original="#37aac4" style="" class=""/><rect fill="#ffffff" height="10" rx="2.04" width="51" x="411.83" y="317.83" data-original="#ffffff" style="" class=""/><path d="m361.33 344.33h35.67a1.83 1.83 0 0 1 1.83 1.83v53.17a0 0 0 0 1 0 0h-39.33a0 0 0 0 1 0 0v-53.16a1.83 1.83 0 0 1 1.83-1.84z" fill="#41c0e3" data-original="#41c0e3" style="" class=""/><path d="m398.83 392.79v6.67h-39.33v-53.17a1.83 1.83 0 0 1 1.83-1.83h5.84v42.9a5.43 5.43 0 0 0 5.43 5.43z" fill="#37aac4" data-original="#37aac4" style="" class=""/><rect fill="#ffffff" height="10" rx="2.04" width="51" x="353.66" y="399.33" data-original="#ffffff" style="" class=""/><path d="m419.49 344.33h35.67a1.83 1.83 0 0 1 1.83 1.83v53.17a0 0 0 0 1 0 0h-39.33a0 0 0 0 1 0 0v-53.16a1.83 1.83 0 0 1 1.83-1.84z" fill="#41c0e3" data-original="#41c0e3" style="" class=""/><path d="m457 392.79v6.67h-39.34v-53.17a1.83 1.83 0 0 1 1.83-1.83h5.84v42.9a5.44 5.44 0 0 0 5.44 5.43z" fill="#37aac4" data-original="#37aac4" style="" class=""/><path d="m462.83 401.38v5.5l-1.8 2.44h-47.16a2 2 0 0 1 -2-2v-5.91a2 2 0 0 1 2-2.05h46.92a2.05 2.05 0 0 1 2.04 2.02z" fill="#ffffff" data-original="#ffffff" style="" class=""/><path d="m346.74 201.17h128.26a5.92 5.92 0 0 1 5.92 5.92v21a5.92 5.92 0 0 1 -5.92 5.91h-128.26a0 0 0 0 1 0 0v-32.83a0 0 0 0 1 0 0z" fill="#ffffff" data-original="#ffffff" style="" class=""/><path d="m480.91 222v6.08a5.92 5.92 0 0 1 -5.91 5.92h-128.27v-32.84h14.76v10.72a10.13 10.13 0 0 0 10.13 10.12z" fill="#e0e2e2" data-original="#e0e2e2" style="" class=""/></g></g></svg>
