<?xml version="1.0" encoding="iso-8859-1"?>
<!-- Generator: Adobe Illustrator 19.0.0, SVG Export Plug-In . SVG Version: 6.00 Build 0)  -->
<svg version="1.1" id="Capa_1" xmlns="http://www.w3.org/2000/svg" xmlns:xlink="http://www.w3.org/1999/xlink" x="0px" y="0px"
	 viewBox="0 0 512 512" style="enable-background:new 0 0 512 512;" xml:space="preserve">
<path style="fill:#5AB482;" d="M98.262,148.519c0-10.535,17.706-24.356,42.616-30.089c-0.09-0.09-0.182-0.176-0.273-0.266
	c-33.22-33.22-42.748-77.552-30.355-89.945s56.725-2.865,89.945,30.355c0.09,0.09,0.176,0.182,0.266,0.273
	c5.733-24.911,19.553-42.616,30.089-42.616c13.628,0,32.765,29.614,32.765,66.144c0,36.531-13.074,57.827-27.078,71.831
	c-14.004,14.004-35.3,27.078-71.831,27.078C127.876,181.284,98.262,162.147,98.262,148.519z"/>
<g>
	<path style="fill:#4C9E72;" d="M230.551,109.915c-4.142,0-7.5-3.358-7.5-7.5V67.526c0-4.142,3.358-7.5,7.5-7.5s7.5,3.358,7.5,7.5
		v34.889C238.051,106.558,234.693,109.915,230.551,109.915z"/>
	<path style="fill:#4C9E72;" d="M195.567,121.035c-1.919,0-3.839-0.733-5.303-2.197l-50.331-50.332
		c-2.929-2.929-2.929-7.678,0-10.606c2.929-2.929,7.678-2.929,10.606,0l50.331,50.332c2.929,2.929,2.929,7.678,0,10.606
		C199.406,120.303,197.487,121.035,195.567,121.035z"/>
	<path style="fill:#4C9E72;" d="M184.448,156.02h-34.889c-4.142,0-7.5-3.358-7.5-7.5s3.358-7.5,7.5-7.5h34.889
		c4.142,0,7.5,3.358,7.5,7.5S188.59,156.02,184.448,156.02z"/>
</g>
<path style="fill:#78D7A8;" d="M410.581,147.574c0-11.155-18.748-25.789-45.124-31.859c0.096-0.095,0.193-0.186,0.289-0.282
	c35.175-35.175,45.263-82.117,32.141-95.239s-60.064-3.034-95.239,32.141c-0.096,0.096-0.186,0.193-0.281,0.289
	C296.295,26.248,281.662,7.5,270.506,7.5c-14.43,0-34.693,31.357-34.693,70.037s13.844,61.23,28.672,76.058
	s37.378,28.672,76.058,28.672C379.224,182.267,410.581,162.004,410.581,147.574z"/>
<g>
	<path style="fill:#69BF96;" d="M270.507,106.257c-4.142,0-7.5-3.358-7.5-7.5V61.814c0-4.142,3.358-7.5,7.5-7.5s7.5,3.358,7.5,7.5
		v36.943C278.007,102.899,274.649,106.257,270.507,106.257z"/>
	<path style="fill:#69BF96;" d="M307.55,118.031c-1.919,0-3.839-0.732-5.303-2.197c-2.929-2.929-2.929-7.678,0-10.607l53.294-53.293
		c2.929-2.929,7.678-2.929,10.606,0c2.929,2.929,2.929,7.678,0,10.606l-53.293,53.294
		C311.388,117.299,309.469,118.031,307.55,118.031z"/>
	<path style="fill:#69BF96;" d="M356.266,155.074h-36.942c-4.142,0-7.5-3.358-7.5-7.5s3.358-7.5,7.5-7.5h36.942
		c4.142,0,7.5,3.358,7.5,7.5S360.408,155.074,356.266,155.074z"/>
</g>
<path style="fill:#E87684;" d="M255.947,134.018c71.468,0,121.371,15.529,152.906,74.83
	c52.108,97.987-64.28,295.652-152.906,295.651S50.933,306.836,103.041,208.849C134.576,149.548,184.479,134.018,255.947,134.018z"/>
<path style="fill:#D46170;" d="M196.605,139.144c-40.79,8.396-71.626,28.453-93.564,69.704
	C50.933,306.836,167.321,504.5,255.947,504.5c26.31,0,55.066-17.42,81.135-44.48C175.99,501.467,105.643,227.358,196.605,139.144z"
	/>
<g>
	<ellipse style="fill:#FFFFFF;" cx="160.61" cy="301.82" rx="34.616" ry="27.567"/>
	<ellipse style="fill:#FFFFFF;" cx="348.24" cy="301.82" rx="34.616" ry="27.567"/>
</g>
<g>
	<path style="fill:#F4E08F;" d="M255.947,388.711c-4.142,0-7.5-3.358-7.5-7.5v-12.252c0-4.142,3.358-7.5,7.5-7.5
		c4.142,0,7.5,3.358,7.5,7.5v12.252C263.447,385.353,260.089,388.711,255.947,388.711z"/>
	<path style="fill:#F4E08F;" d="M255.947,201.257c-4.142,0-7.5-3.358-7.5-7.5v-18.599c0-4.142,3.358-7.5,7.5-7.5
		c4.142,0,7.5,3.358,7.5,7.5v18.599C263.447,197.899,260.089,201.257,255.947,201.257z"/>
	<path style="fill:#F4E08F;" d="M173.526,372.456c-4.142,0-7.5-3.358-7.5-7.5v-11.403c0-4.142,3.358-7.5,7.5-7.5s7.5,3.358,7.5,7.5
		v11.403C181.026,369.098,177.668,372.456,173.526,372.456z"/>
	<path style="fill:#F4E08F;" d="M211.713,436.347c-4.142,0-7.5-3.358-7.5-7.5v-10.589c0-4.142,3.358-7.5,7.5-7.5s7.5,3.358,7.5,7.5
		v10.589C219.213,432.989,215.855,436.347,211.713,436.347z"/>
	<path style="fill:#F4E08F;" d="M338.368,372.456c-4.142,0-7.5-3.358-7.5-7.5v-11.403c0-4.142,3.358-7.5,7.5-7.5s7.5,3.358,7.5,7.5
		v11.403C345.868,369.098,342.51,372.456,338.368,372.456z"/>
	<path style="fill:#F4E08F;" d="M300.181,436.347c-4.142,0-7.5-3.358-7.5-7.5v-10.589c0-4.142,3.358-7.5,7.5-7.5s7.5,3.358,7.5,7.5
		v10.589C307.681,432.989,304.324,436.347,300.181,436.347z"/>
	<path style="fill:#F4E08F;" d="M170.401,216.512c-4.142,0-7.5-3.358-7.5-7.5v-12.814c0-4.142,3.358-7.5,7.5-7.5s7.5,3.358,7.5,7.5
		v12.814C177.901,213.154,174.543,216.512,170.401,216.512z"/>
	<path style="fill:#F4E08F;" d="M341.493,216.512c-4.142,0-7.5-3.358-7.5-7.5v-12.814c0-4.142,3.358-7.5,7.5-7.5s7.5,3.358,7.5,7.5
		v12.814C348.993,213.154,345.635,216.512,341.493,216.512z"/>
</g>
<path d="M344.54,279.324c4.142,0,7.5-3.358,7.5-7.5c0-13.221-10.756-23.977-23.977-23.977s-23.977,10.756-23.977,23.977
	c0,4.142,3.358,7.5,7.5,7.5s7.5-3.358,7.5-7.5c0-4.95,4.027-8.977,8.977-8.977c4.95,0,8.977,4.027,8.977,8.977
	C337.04,275.966,340.398,279.324,344.54,279.324z M266.245,286.154c-2.986,3.425-7.295,5.39-11.824,5.39
	c-4.529,0-8.838-1.964-11.823-5.39c-2.721-3.124-7.459-3.448-10.582-0.727s-3.448,7.459-0.727,10.582
	c5.834,6.695,14.266,10.535,23.132,10.535s17.297-3.84,23.131-10.535c2.722-3.123,2.396-7.86-0.726-10.582
	C273.704,282.706,268.966,283.031,266.245,286.154z M415.475,205.327c-5.897-11.089-12.528-20.886-19.945-29.468
	c14.119-8.116,22.551-18.484,22.551-28.285c0-13.39-16.04-27.654-38.87-35.678c12.934-15.172,22.689-32.654,27.906-50.217
	c6.237-21.001,4.806-38.055-3.927-46.788c-15.434-15.435-60.145-7.52-97.008,23.971C298.157,16.037,283.895,0,270.507,0
	c-8.182,0-16.657,5.706-24.029,15.925c-5.193-4.688-10.658-7.194-15.926-7.194c-12.936,0-26.245,14.73-33.91,36.397
	c-14.26-12.047-30.638-21.139-47.093-26.026c-19.985-5.936-36.242-4.546-44.601,3.814c-6.068,6.068-8.484,16.247-6.987,29.436
	c0.467,4.116,4.184,7.075,8.298,6.606c4.116-0.467,7.074-4.182,6.607-8.298c-1.086-9.567,0.677-15.126,2.689-17.138
	c3.292-3.294,13.999-4.712,29.724-0.041c17.374,5.16,35.458,16.239,49.648,30.43l0.233,0.238c1.426,1.427,3.342,2.197,5.304,2.197
	c0.69,0,1.387-0.095,2.069-0.291c2.621-0.753,4.628-2.869,5.239-5.527c5.48-23.81,17.922-36.798,22.78-36.798
	c1.231,0,4.264,1.261,8.146,5.609c-6.714,14.32-10.384,31.213-10.384,48.198c0,18.416,3.09,34.96,9.179,49.368
	c-31.181,1.362-55.65,6.361-76.025,15.44c-13.257,5.906-25.011,13.699-35.427,23.457c-14.263-6.407-20.278-14.212-20.278-17.284
	c0-4.857,12.988-17.3,36.798-22.779c2.658-0.612,4.774-2.618,5.527-5.239c0.753-2.622,0.023-5.445-1.906-7.373l-0.272-0.266
	c-9.18-9.181-17.116-20.013-22.95-31.327c-1.898-3.681-6.421-5.128-10.103-3.229c-3.682,1.898-5.128,6.421-3.229,10.103
	c4.737,9.188,10.707,18.088,17.542,26.198c-21.672,7.664-36.408,20.976-36.408,33.913c0,10.104,9.33,20.8,24.466,28.701
	c-6.956,8.258-13.219,17.593-18.81,28.108c-13.801,25.952-17.325,60.196-10.191,99.03c6.279,34.187,20.902,71.597,41.175,105.338
	C165.316,472.799,214.572,512,255.947,512c21.759,0,45.961-10.782,69.989-31.18c3.158-2.681,3.544-7.414,0.863-10.572
	c-2.68-3.158-7.413-3.544-10.571-0.863C294.948,487.451,274.103,497,255.947,497c-35.593,0-81.003-37.302-115.688-95.03
	c-19.367-32.235-33.317-67.863-39.279-100.322c-6.516-35.472-3.513-66.344,8.683-89.277c30.233-56.852,77.81-69.999,139.848-70.809
	c0.046-0.001,0.092-0.001,0.139-0.002c2.083-0.027,4.182-0.04,6.298-0.04c65.189,0,115.014,12.049,146.284,70.852
	c32.872,61.813-6.35,168.852-61.541,232.574c-2.712,3.131-2.372,7.868,0.759,10.58c3.132,2.712,7.867,2.372,10.58-0.759
	c29.791-34.396,54.28-79.393,67.188-123.454C437.788,267.922,427.432,227.813,415.475,205.327z M350.427,142.345
	c-24.235-10.798-54.256-15.827-94.48-15.827c-0.708,0-1.405,0.005-2.107,0.008c-7.07-13.812-10.527-29.885-10.527-48.99
	c0-18.534,4.701-33.978,10.405-44.886c0.308-0.448,0.563-0.923,0.764-1.419C260.184,20.886,266.7,15,270.507,15
	c1.781,0,6.266,2.019,11.773,9.584c5.599,7.692,10.137,18.248,12.777,29.722c0.613,2.661,2.623,4.779,5.249,5.529
	c2.626,0.751,5.452,0.015,7.377-1.922l0.268-0.275c15.04-15.04,34.256-26.811,52.721-32.295c16.822-4.996,28.335-3.422,31.911,0.154
	c3.577,3.577,5.151,15.089,0.154,31.911c-5.484,18.465-17.255,37.681-32.336,52.761l-0.248,0.242
	c-1.929,1.928-2.658,4.752-1.906,7.373c0.753,2.621,2.869,4.627,5.527,5.239c11.475,2.641,22.03,7.178,29.722,12.777
	c7.566,5.507,9.585,9.992,9.585,11.773c0,3.37-5.903,10.741-18.438,17.106C374.528,155.446,363.172,148.024,350.427,142.345z
	 M156.803,271.824c0,4.142,3.358,7.5,7.5,7.5s7.5-3.358,7.5-7.5c0-4.95,4.027-8.977,8.977-8.977c4.95,0,8.977,4.027,8.977,8.977
	c0,4.142,3.358,7.5,7.5,7.5s7.5-3.358,7.5-7.5c0-13.221-10.756-23.977-23.977-23.977
	C167.559,247.847,156.803,258.603,156.803,271.824z"/>
<g>
</g>
<g>
</g>
<g>
</g>
<g>
</g>
<g>
</g>
<g>
</g>
<g>
</g>
<g>
</g>
<g>
</g>
<g>
</g>
<g>
</g>
<g>
</g>
<g>
</g>
<g>
</g>
<g>
</g>
</svg>
